<?xml version="1.0" standalone="no"?>
<!DOCTYPE svg PUBLIC "-//W3C//DTD SVG 20010904//EN"
 "http://www.w3.org/TR/2001/REC-SVG-20010904/DTD/svg10.dtd">
<svg version="1.0" xmlns="http://www.w3.org/2000/svg"
 width="50.000000pt" height="50.000000pt" viewBox="0 0 500.000000 500.000000"
 preserveAspectRatio="xMidYMid meet">

<g transform="translate(0.000000,500.000000) scale(0.100000,-0.100000)"
fill="#000000" stroke="none">
<path d="M3775 4700 c-137 -77 -255 -139 -261 -140 -7 0 -22 41 -34 90 -23 95
-39 114 -83 108 -14 -2 -76 -72 -187 -212 -91 -115 -170 -211 -175 -213 -6 -1
-32 38 -60 89 -27 50 -58 102 -68 115 -24 31 -71 31 -91 1 -7 -13 -58 -157
-112 -320 -54 -164 -101 -298 -104 -298 -3 0 -16 21 -30 48 -13 26 -65 88
-115 138 -140 140 -241 181 -340 135 -81 -36 -135 -131 -120 -210 13 -71 47
-113 131 -160 114 -65 141 -87 169 -144 23 -50 38 -157 23 -172 -3 -4 -24 3
-47 14 -62 32 -148 51 -231 51 -168 0 -314 -74 -414 -210 l-43 -59 -32 49
c-61 94 -175 174 -292 205 -72 20 -202 19 -270 -1 -223 -66 -379 -271 -379
-497 1 -275 240 -516 512 -517 l47 0 -35 -57 c-200 -332 37 -767 421 -775 41
-1 75 -3 75 -4 0 -2 -11 -19 -25 -39 -47 -70 -68 -143 -73 -252 -3 -84 -1
-114 16 -170 37 -119 109 -214 216 -284 63 -42 167 -79 220 -79 54 0 57 -8 29
-90 -80 -235 25 -503 244 -622 141 -77 345 -77 486 0 219 119 324 387 244 622
-28 82 -25 90 29 90 53 0 157 37 220 79 107 70 179 165 216 284 39 131 15 316
-57 421 -13 20 -23 36 -22 37 1 0 29 3 62 5 233 18 430 185 476 402 26 125 -3
294 -66 387 -14 20 -25 38 -25 40 0 3 24 5 53 5 235 1 447 171 502 402 63 267
-96 533 -364 612 -68 20 -198 21 -270 1 -117 -31 -231 -111 -292 -205 l-32
-49 -30 42 c-16 23 -43 56 -59 73 -16 18 -26 34 -21 37 4 2 53 10 107 17 147
19 165 46 96 142 -39 54 -39 56 -17 61 12 3 107 22 212 42 104 20 197 41 207
46 20 11 31 42 24 67 -4 10 -33 41 -66 68 -33 27 -60 52 -60 56 0 3 60 37 133
74 148 75 167 88 167 119 0 44 -21 54 -172 87 -82 17 -148 34 -148 37 0 3 72
105 160 225 93 128 160 229 160 242 0 31 -26 54 -58 53 -15 0 -139 -63 -277
-139z m-18 -222 c-138 -187 -141 -192 -125 -225 12 -25 23 -30 113 -50 55 -12
107 -24 115 -26 8 -2 -31 -26 -86 -55 -114 -57 -134 -73 -134 -107 0 -25 4
-31 64 -83 21 -18 36 -35 33 -38 -2 -2 -89 -21 -193 -40 -104 -20 -199 -43
-211 -50 -33 -21 -29 -59 13 -116 19 -28 34 -51 32 -53 -2 -2 -56 -11 -121
-20 -96 -14 -129 -15 -174 -6 -69 14 -183 14 -242 0 -24 -5 -46 -7 -49 -5 -8
8 65 94 156 183 96 94 204 181 340 274 84 56 97 70 100 96 3 33 -25 63 -58 63
-22 0 -204 -125 -315 -215 -91 -74 -245 -227 -301 -299 l-31 -40 -7 38 c-6 32
9 85 94 342 56 168 105 302 109 299 3 -3 29 -45 56 -93 47 -81 52 -87 85 -90
35 -3 38 -1 194 198 87 111 161 199 164 195 3 -3 13 -34 22 -68 11 -47 21 -65
41 -76 25 -14 33 -11 210 86 101 56 185 100 187 98 2 -2 -34 -54 -81 -117z
m-1507 -355 c205 -136 310 -319 327 -569 l6 -90 -38 -50 c-21 -27 -41 -49 -45
-49 -4 0 -24 22 -44 49 -35 44 -37 50 -25 77 8 20 10 62 7 124 -4 80 -10 105
-37 159 -38 78 -102 138 -200 190 -39 20 -75 45 -81 56 -17 31 -11 66 15 94
28 31 77 35 115 9z m-1059 -623 c224 -42 370 -254 324 -471 -27 -131 -100
-223 -225 -283 -59 -28 -73 -31 -165 -31 -93 0 -105 2 -165 32 -83 41 -152
110 -193 193 -30 60 -32 72 -32 170 0 96 3 110 29 165 54 110 171 202 286 224
63 12 80 12 141 1z m989 -19 c104 -39 177 -110 228 -218 24 -51 27 -70 27
-158 0 -87 -4 -107 -27 -158 -37 -79 -117 -160 -195 -199 -162 -79 -369 -31
-482 112 -128 161 -113 390 34 529 118 111 273 146 415 92z m845 18 c202 -37
356 -239 331 -432 -29 -218 -208 -368 -425 -355 -142 8 -268 94 -334 227 -30
61 -32 73 -32 166 0 92 3 106 32 167 54 115 165 204 283 227 63 12 79 12 145
0z m991 -20 c107 -40 195 -133 235 -247 31 -87 23 -208 -18 -293 -41 -82 -110
-152 -193 -192 -60 -30 -72 -32 -165 -32 -92 0 -106 3 -165 31 -125 60 -198
152 -225 283 -54 255 160 497 419 475 32 -3 83 -14 112 -25z m-2406 -655 c12
-19 21 -36 19 -37 -2 -1 -23 0 -46 3 l-42 5 20 33 c12 17 22 32 24 32 2 0 13
-16 25 -36z m918 0 c13 -20 22 -37 20 -38 -2 -1 -24 -1 -50 2 l-47 4 22 34
c12 18 24 34 27 34 3 0 15 -16 28 -36z m912 0 c12 -19 21 -36 19 -37 -2 -1
-23 0 -46 3 l-42 5 20 33 c12 17 22 32 24 32 2 0 13 -16 25 -36z m-1694 -194
c78 -38 150 -109 190 -187 27 -54 29 -66 29 -168 0 -98 -3 -116 -27 -167 -31
-68 -103 -147 -163 -183 -196 -114 -456 -33 -558 174 -30 61 -32 72 -32 171 0
93 3 112 27 162 29 63 101 146 155 179 110 68 264 76 379 19z m865 20 c173
-54 288 -224 277 -406 -4 -59 -12 -89 -42 -148 -121 -246 -442 -299 -636 -106
-154 155 -154 407 1 562 106 106 256 143 400 98z m964 -18 c251 -118 309 -445
114 -641 -262 -261 -702 -60 -676 309 8 126 68 228 176 302 110 76 262 88 386
30z m-1495 -49 c-1 -5 -11 -21 -24 -36 l-23 -29 -22 30 c-11 17 -21 33 -21 36
0 3 20 6 45 6 25 0 45 -3 45 -7z m898 -28 c-13 -19 -25 -35 -28 -35 -3 0 -15
16 -28 35 l-22 35 50 0 50 0 -22 -35z m-918 -565 l21 -30 -45 0 -45 0 17 30
c9 16 20 30 24 30 4 0 16 -13 28 -30z m913 1 l17 -29 -40 -4 c-44 -4 -48 1
-24 37 21 32 26 31 47 -4z m-812 -171 c210 -66 328 -296 258 -502 -30 -89 -71
-144 -131 -174 -29 -15 -73 -41 -100 -59 -116 -80 -304 -46 -427 76 -156 157
-156 405 0 561 106 106 257 143 400 98z m964 -18 c251 -118 310 -445 114 -641
-123 -122 -311 -156 -427 -76 -27 18 -72 45 -100 59 -131 66 -188 276 -123
447 39 101 139 194 250 231 85 28 200 20 286 -20z m-585 -48 c0 -10 -34 -64
-40 -64 -5 0 -40 54 -40 62 0 2 18 4 40 5 22 1 40 -1 40 -3z m125 -735 c39
-25 82 -50 98 -57 32 -14 85 -85 110 -150 73 -185 -15 -404 -199 -496 -218
-109 -483 9 -555 246 -49 162 16 349 143 413 29 15 67 38 85 51 50 38 72 44
163 41 82 -2 87 -3 155 -48z"/>
<path d="M1063 3244 c-15 -24 -15 -29 -2 -53 11 -20 22 -26 49 -26 27 0 38 6
49 26 13 24 13 29 -2 53 -12 18 -26 26 -47 26 -21 0 -35 -8 -47 -26z"/>
<path d="M952 3134 c-42 -29 -18 -104 35 -104 47 0 71 71 35 103 -23 21 -41
21 -70 1z"/>
<path d="M2830 3155 c-16 -20 -16 -61 0 -80 21 -25 72 -15 89 16 13 24 13 29
-2 53 -20 30 -67 36 -87 11z"/>
<path d="M3882 3384 c-26 -18 -30 -65 -6 -88 47 -48 123 23 82 76 -20 25 -51
30 -76 12z"/>
<path d="M2623 2150 c-52 -21 -31 -110 25 -110 37 0 52 17 52 56 0 23 -7 38
-22 48 -25 18 -25 18 -55 6z"/>
<path d="M3470 2381 c-24 -46 0 -91 49 -91 35 0 51 17 51 55 0 40 -16 55 -57
55 -22 0 -36 -6 -43 -19z"/>
<path d="M3500 2202 c-40 -12 -53 -67 -22 -95 39 -35 92 -10 92 42 0 38 -35
64 -70 53z"/>
<path d="M1866 1594 c-34 -34 -6 -104 41 -104 21 0 53 38 53 63 0 48 -61 74
-94 41z"/>
<path d="M1822 1424 c-43 -30 -20 -104 32 -104 50 0 73 63 36 100 -24 24 -38
25 -68 4z"/>
<path d="M3125 1437 c-35 -53 19 -116 70 -83 48 31 34 99 -22 104 -25 2 -35
-2 -48 -21z"/>
<path d="M2687 652 c-35 -39 -11 -102 38 -102 26 0 55 33 55 62 0 23 -35 58
-58 58 -11 0 -26 -8 -35 -18z"/>
<path d="M2537 502 c-23 -25 -22 -65 2 -86 26 -24 62 -17 81 17 13 24 13 30 0
55 -19 33 -59 41 -83 14z"/>
</g>
</svg>
